<svg width="1200" height="1200" xmlns="http://www.w3.org/2000/svg" xmlns:xlink="http://www.w3.org/1999/xlink" version="1.1">
<style>
    .favicon-color { fill: #111111; }
    @media (prefers-color-scheme: dark) {
        .favicon-color { fill: #FFFFFF; }
    }
</style>

<g transform="scale(13.619510498041707) translate(-5.945553249782989, -3.796554989284939)">                        <g 
    class="favicon-color"
><g xmlns="http://www.w3.org/2000/svg"><path d="M49.999,24.181l-1.228,0.709v-1.538h2.516c4.184,0,7.574-3.391,7.574-7.575c0-4.184-3.391-7.575-7.574-7.575H39.963   c-4.184,0-7.575,3.391-7.575,7.575c0,4.184,3.392,7.575,7.575,7.575h2.515v5.171L22.585,40.012v31.659L49.999,87.5l27.416-15.829   V40.012L49.999,24.181z M44.479,21.352h-4.515c-3.074,0-5.575-2.501-5.575-5.575c0-3.074,2.501-5.575,5.575-5.575h11.324   c3.073,0,5.574,2.501,5.574,5.575c0,3.074-2.501,5.575-5.574,5.575h-4.516v17.373c-0.13,0.141-0.451,0.375-1.146,0.375   c-0.679,0-0.998-0.213-1.146-0.393V21.352z M48.878,84.414L24.694,70.45V42.593l24.184,13.963V84.414z M49.932,54.73L25.62,40.694   l16.858-9.733v4.554c-1.241,0.763-2.033,1.926-1.99,3.215c0.072,2.18,2.471,3.867,5.355,3.77c0.749-0.03,1.455-0.18,2.098-0.415   l7.179,5.513l5.893-3.429l-10.471-4.195c0.262-0.496,0.406-1.038,0.391-1.599c-0.043-1.272-0.896-2.367-2.163-3.047v-8l1.228-0.709   l24.312,14.036L49.932,54.73z"/><path d="M53.97,15.777c0-1.882-1.531-3.414-3.413-3.414h-9.863c-1.882,0-3.413,1.532-3.413,3.414s1.531,3.414,3.413,3.414h9.863   C52.438,19.191,53.97,17.659,53.97,15.777z M39.28,15.777c0-0.781,0.633-1.414,1.413-1.414h9.863c0.779,0,1.413,0.633,1.413,1.414   s-0.634,1.414-1.413,1.414h-9.863C39.913,17.191,39.28,16.558,39.28,15.777z"/></g></g>        </g></svg>